<svg fill="none" height="74" viewBox="0 0 75 74" width="75" xmlns="http://www.w3.org/2000/svg" xmlns:xlink="http://www.w3.org/1999/xlink"><clipPath id="a"><path d="m18.5039 17.76h37v37h-37z"/></clipPath><circle cx="37.0039" cy="37" fill="#009f8b" r="37"/><g clip-path="url(#a)" fill="#fff"><path d="m55.4803 40.4379c-.0037-.0222-.0086-.0438-.0148-.0647l-.1074-.3799c-.4403-1.6422-3.2029-3.2375-4.8451-2.7972-.3287.0881-.5241.4261-.436.7554.0882.3286.4237.5248.7554.4359.983-.2639 3.071.9429 3.3368 1.9339l.0993.3497c.0031.0308.0019.0505-.0019.061-.2843.0913-1.5965.5107-2.3261.7061-.748.2004-1.5287.4576-2.3421.7499-.3126-2.2946-.9478-4.6743-1.8907-8.1936l-2.2348-8.3386c-.4995-1.8642-2.1528-2.6159-3.4644-2.2638-.5316.1424-1.0114.4637-1.3684.9072l-.4539-1.6959c-.4933-1.8395-2.1898-2.6042-3.4755-2.2607-.5372.1437-1.0348.4976-1.3992.9892-.2714-.5477-.6913-.9966-1.2217-1.2963-.7011-.3965-1.5281-.4963-2.3279-.2818-.8023.2146-1.4689.7116-1.8771 1.3999-.1406.238-.2466.4915-.3164.7548-.0363-.0216-.0733-.0426-.111-.0629-.6709-.3595-1.4873-.4372-2.3013-.2195-.7955.2134-1.4603.7234-1.8722 1.4362-.4119.7135-.5217 1.5447-.3077 2.3396l1.6989 6.3436c-.4064.5192-1.2846 1.7729-1.768 3.4805-.0932.3274.098.6684.4255.7609.0561.0161.1122.0241.1684.0241.2689 0 .5161-.1776.5932-.4489.2583-.9158.6543-1.6847 1.0009-2.2502l1.8704 6.9813c.0881.3293.423.5248.7553.436.3294-.0876.5242-.4262.436-.7549l-3.9898-14.8918c-.1277-.4767-.0623-.9756.185-1.4036.2466-.4274.6456-.7338 1.1229-.8615.5094-.1375 1.0058-.0961 1.3999.1154.4174.2239.7171.6358.8658 1.1926l3.3522 12.5091c.0881.3287.4273.5254.7548.436.3293-.0882.5241-.4262.436-.7554l-3.5107-13.1048c-.1351-.5044-.074-1.0114.1726-1.4276.243-.4095.6463-.7067 1.1359-.8381.4853-.1301.9836-.0715 1.4017.1646.4236.2393.7301.6451.8633 1.1433l3.5114 13.1049c.0881.3286.4267.526.7553.4359.3294-.0881.5242-.4261.436-.7554l-3.0321-11.3178c-.3084-1.1501.4033-2.0226 1.0132-2.1867.5975-.1603 1.6372.1696 1.9647 1.3888l3.0321 11.3176c.0881.3294.423.5261.7554.436.3286-.0876.5241-.4261.436-.7548l-1.9123-7.149c-.1801-.6722-.0253-1.1655.1363-1.461.1998-.3656.5223-.6308.8848-.7282.7265-.1924 1.6546.2743 1.9543 1.3924l2.2354 8.3398c1.8456 6.89 2.4938 9.3104 1.7951 15.4784l-13.4076 3.5921c-2.9864-5.6344-9.4127-10.7744-13.0979-12.9019-.6567-.3792-1.8229-1.1285-2.0677-1.2864.0025-.0117.0074-.0302.0179-.0567l.1906-.3194c.2331-.4034.9077-.8048 1.7192-1.0225.8116-.2176 1.5972-.2071 1.9999.0253l2.8909 1.67c.2954.1696.6722.0684.8424-.2264s.0697-.6721-.2256-.8424l-2.891-1.6693c-.6931-.4002-1.7908-.4557-2.9359-.148-1.1458.3071-2.0683.904-2.463 1.5885l-.2066.346c-.0117.0191-.0222.0388-.0314.0591-.2701.5896-.1505 1.1729.3206 1.5602.0179.0148.037.029.0568.0413.0573.037 1.4066.9096 2.1663 1.3487 3.6464 2.1046 10.0616 7.2452 12.823 12.7971.0962.2306.3231.3786.5698.3786.0494 0 .0999-.0061.1499-.0185.0062-.0018.0117-.0031.0173-.0043l14.2857-3.8283c.2436-.0647.4231-.2719.4526-.5223.3398-2.8404.4169-4.913.2492-6.9067.8868-.3268 1.7229-.6037 2.5221-.8177.8479-.2275 2.3773-.7208 2.442-.7418.0222-.0074.0438-.0161.0654-.0253.5549-.2521.8219-.7849.7134-1.4244z"/><path d="m25.9697 19.919c.1079.2164.3256.341.5519.341.0925 0 .1868-.021.275-.0648.3047-.1523.4286-.5229.2763-.8276l-.6173-1.2333c-.1517-.3046-.5217-.4292-.8269-.2756-.3047.1523-.4287.5223-.2763.8269z"/><path d="m40.1831 19.6163c.6086-.6561 1.4633-.7067 1.9573-.4224.5464.3157 1.0076 1.3419.4138 2.3729l-.0013.0019c-.1702.2948-.0691.6716.2257.8423.2954.1702.6722.0685.8424-.2257.0006-.0006.0013-.0018.0013-.0024l.9237-1.5996c.5273-.9139 1.6139-1.205 2.5272-.6777.9281.5365 1.2129 1.5996.6777 2.5277l-.2948.5106-.9454 1.4276c-.1881.2837-.1103.6666.1739.8547.1048.0691.2232.1024.3398.1024.1998 0 .3965-.0974.5149-.2763l.9527-1.4386c.0037-.0056.0037-.0124.0074-.0179.0031-.0056.0086-.008.0124-.0141v-.0007l.0006-.0007c.682-1.1778 1.7514-1.1204 2.5253-.6727.4273.2466.7338.645.8614 1.1223.1283.4773.0623.9756-.1843 1.4036l-3.4768 6.0217c-.1702.2948-.0684.6722.2257.8424.0974.0561.2035.0826.3084.0826.2127 0 .4199-.1104.5346-.3084l3.4755-6.0218c.4119-.7129.5217-1.5435.3084-2.339-.2134-.7961-.7234-1.4608-1.4362-1.8716-.8017-.4637-1.6446-.5698-2.3995-.354.0068-1.0557-.5476-2.0596-1.5651-2.6479-1.3074-.7542-2.8823-.4724-3.8369.6074-.2251-.5704-.6142-1.0409-1.0964-1.3191-.9299-.5365-2.4235-.4847-3.4774.6524-.2319.2498-.2171.6395.0326.8714.2497.2312.6389.2164.8714-.0333z"/><path d="m22.385 22.5461c.1202.1202.2781.1806.436.1806s.3157-.0604.436-.1806c.2411-.2412.2411-.6309 0-.872l-1.2334-1.2333c-.2412-.2412-.6309-.2412-.872 0-.241.2411-.241.6308 0 .8719z"/><path d="m20.9709 26.4266h1.2334c.3403 0 .6166-.2762.6166-.6166s-.2763-.6166-.6166-.6166h-1.2334c-.3404 0-.6167.2762-.6167.6166s.2763.6166.6167.6166z"/><path d="m20.9709 30.7432c.0641 0 .1302-.0099.1949-.0314l1.85-.6166c.3231-.1079.4983-.4576.3904-.7801-.1079-.3231-.4563-.4983-.7801-.3904l-1.85.6166c-.3231.1079-.4976.4576-.3904.7801.0864.2584.3269.4218.5852.4218z"/></g></svg>